<svg
  xmlns="http://www.w3.org/2000/svg"
  xmlns:xlink="http://www.w3.org/1999/xlink"
  width="400"
  height="400"
  viewBox="0 0 400 400"
>
  <rect width="100%" height="100%" fill="#282c34" />
  <g>
    <path
      fill="#61dafb"
      d="M199.81 0c-6.987 0-12.927 5.938-12.927 12.923v80.815c0 6.985 5.94 12.924 12.927 12.924s12.927-5.939 12.927-12.924V12.923C212.737 5.938 206.797 0 199.81 0z"
    />
    <path
      fill="#61dafb"
      d="M199.81 292.56c-6.987 0-12.927 5.938-12.927 12.923v80.815c0 6.985 5.94 12.924 12.927 12.924s12.927-5.939 12.927-12.924v-80.815c0-6.985-5.94-12.923-12.927-12.923z"
    />
    <path
      fill="#61dafb"
      d="M59.68 59.68c-5.046 5.048-5.046 13.242 0 18.29l57.178 57.178c5.048 5.048 13.244 5.048 18.29 0 5.046-5.048 5.046-13.244 0-18.29L77.97 59.68c-5.046-5.048-13.242-5.048-18.29 0zM342.66 342.66c-5.046 5.048-5.046 13.244 0 18.29 5.048 5.048 13.244 5.048 18.29 0l57.178-57.178c5.048-5.048 5.048-13.244 0-18.29-5.048-5.048-13.244-5.048-18.29 0l-57.178 57.178z"
    />
    <path
      fill="#61dafb"
      d="M106.504 106.505c-3.945 3.946-3.945 10.344 0 14.292l62.13 62.13c3.947 3.947 10.345 3.947 14.292 0 3.947-3.946 3.947-10.345 0-14.292l-62.13-62.13c-3.946-3.947-10.345-3.947-14.292 0zM293.496 293.495c-3.945 3.947-3.945 10.345 0 14.292 3.947 3.947 10.345 3.947 14.292 0l62.13-62.13c3.947-3.946 3.947-10.345 0-14.292-3.947-3.947-10.345-3.947-14.292 0l-62.13 62.13z"
    />
    <path
      fill="#61dafb"
      d="M199.81 144.425c-30.528 0-55.236 24.71-55.236 55.236s24.708 55.236 55.236 55.236 55.236-24.71 55.236-55.236-24.708-55.236-55.236-55.236zm0 80.75c-14.08 0-25.514-11.434-25.514-25.514s11.434-25.514 25.514-25.514 25.514 11.434 25.514 25.514-11.434 25.514-25.514 25.514z"
    />
  </g>
</svg>
